<svg width="18" height="15" viewBox="0 0 18 15" fill="none" xmlns="http://www.w3.org/2000/svg">
<path d="M17.1816 7.4974H3.27304V3.30309C3.27016 3.03285 3.34793 2.76703 3.49793 2.53442C3.64794 2.3018 3.86447 2.11125 4.12407 1.98338C4.41118 1.84084 4.73826 1.78044 5.06314 1.80997C4.89778 2.26925 4.87427 2.76154 4.99523 3.23232C5.11618 3.7031 5.37688 4.13397 5.74843 4.47722L6.61546 5.2724C6.76887 5.41309 6.97693 5.49213 7.19388 5.49213C7.41082 5.49213 7.61889 5.41309 7.77229 5.2724L10.6645 2.61984C10.8179 2.47915 10.9041 2.28833 10.9041 2.08936C10.9041 1.89039 10.8179 1.69957 10.6645 1.55888L9.79749 0.763688C9.31455 0.322786 8.67575 0.0546113 7.99627 0.00750678C7.31678 -0.0395978 6.64129 0.137466 6.09158 0.506781C5.59597 0.329728 5.06073 0.266291 4.53233 0.321977C4.00393 0.377663 3.49833 0.550789 3.05943 0.826326C2.62053 1.10186 2.26159 1.47148 2.01377 1.9031C1.76595 2.33472 1.63673 2.81529 1.63735 3.30309V7.4974H0.818995C0.71016 7.49539 0.60198 7.51331 0.50079 7.55011C0.3996 7.58692 0.307435 7.64187 0.229688 7.71175C0.151942 7.78163 0.0901759 7.86503 0.048011 7.95707C0.00584612 8.04912 -0.0158691 8.14795 -0.0158691 8.24778C-0.0158691 8.34762 0.00584612 8.44646 0.048011 8.5385C0.0901759 8.63054 0.151942 8.71394 0.229688 8.78382C0.307435 8.8537 0.3996 8.90865 0.50079 8.94546C0.60198 8.98226 0.71016 9.00018 0.818995 8.99817H1.63735V11.2492C1.63877 11.7133 1.79684 12.1656 2.08984 12.544C2.38284 12.9224 2.7964 13.2083 3.27371 13.3625V14.2495C3.27371 14.4485 3.35991 14.6393 3.51335 14.7801C3.66679 14.9208 3.8749 14.9998 4.09189 14.9998C4.30889 14.9998 4.51699 14.9208 4.67043 14.7801C4.82387 14.6393 4.91007 14.4485 4.91007 14.2495V13.5005H13.0916V14.2507C13.0916 14.4497 13.1778 14.6406 13.3312 14.7813C13.4846 14.922 13.6927 15.0011 13.9097 15.0011C14.1267 15.0011 14.3348 14.922 14.4883 14.7813C14.6417 14.6406 14.7279 14.4497 14.7279 14.2507V13.3637C15.2051 13.2096 15.6186 12.9237 15.9115 12.5454C16.2045 12.1672 16.3627 11.715 16.3643 11.251V8.99817H17.1823C17.2911 9.00018 17.3993 8.98226 17.5005 8.94546C17.6017 8.90865 17.6939 8.8537 17.7716 8.78382C17.8494 8.71394 17.9111 8.63054 17.9533 8.5385C17.9955 8.44646 18.0172 8.34762 18.0172 8.24778C18.0172 8.14795 17.9955 8.04912 17.9533 7.95707C17.9111 7.86503 17.8494 7.78163 17.7716 7.71175C17.6939 7.64187 17.6017 7.58692 17.5005 7.55011C17.3993 7.51331 17.2911 7.49539 17.1823 7.4974H17.1816ZM6.90626 1.82435C7.13651 1.61398 7.44828 1.49586 7.77329 1.49586C8.0983 1.49586 8.41007 1.61398 8.64033 1.82435L8.92945 2.08951L7.19538 3.67989L6.90626 3.41472C6.67672 3.20363 6.54781 2.91766 6.54781 2.61953C6.54781 2.32141 6.67672 2.03544 6.90626 1.82435ZM14.7283 11.2492C14.7281 11.4481 14.6418 11.6388 14.4885 11.7795C14.3351 11.9201 14.1271 11.9992 13.9102 11.9994H4.09106C3.87416 11.9992 3.6662 11.9201 3.51283 11.7795C3.35946 11.6388 3.27322 11.4481 3.27304 11.2492V8.99817H14.7273L14.7283 11.2492Z" fill="#2E2E3B"/>
</svg>
