<svg width="15" height="14" viewBox="0 0 15 14" fill="none" xmlns="http://www.w3.org/2000/svg">
<path d="M3.46512 7.82279C3.37207 7.85785 3.28756 7.91374 3.21758 7.98651C3.14759 8.05929 3.09385 8.14717 3.06014 8.24394C3.00557 8.38566 2.9922 8.54092 3.02169 8.69047C3.05118 8.84002 3.12223 8.97728 3.22604 9.08523C3.32984 9.19317 3.46183 9.26706 3.60564 9.29773C3.74945 9.3284 3.89875 9.31449 4.03503 9.25774C4.12589 9.21821 4.20957 9.16279 4.28243 9.09388C4.3487 9.0181 4.40199 8.93109 4.44 8.8366C4.4816 8.7439 4.50177 8.64237 4.49891 8.54011C4.49618 8.33363 4.41854 8.13584 4.28155 7.98635C4.17614 7.87841 4.04239 7.80529 3.89712 7.77619C3.75185 7.74709 3.60155 7.7633 3.46512 7.82279ZM13.32 4.70297L12.3001 1.55987C12.1445 1.1022 11.8559 0.706189 11.4743 0.426695C11.0926 0.147201 10.6368 -0.00193332 10.17 -4.32901e-05H4.83025C4.36347 -0.00193332 3.90769 0.147201 3.52604 0.426695C3.1444 0.706189 2.8558 1.1022 2.70023 1.55987L1.67881 4.72625C1.19925 4.85717 0.774704 5.14913 0.471121 5.55677C0.167539 5.96442 0.00192107 6.46492 0 6.98051L0 10.1C0.0013697 10.5827 0.146262 11.0531 0.414812 11.4467C0.683362 11.8404 1.06242 12.138 1.50003 12.2989V13.2177C1.50392 13.4219 1.58465 13.6163 1.72488 13.7593C1.86511 13.9023 2.05366 13.9824 2.25004 13.9824C2.44643 13.9824 2.63498 13.9023 2.77521 13.7593C2.91544 13.6163 2.99617 13.4219 3.00006 13.2177V12.44H11.9999V13.2199C11.9999 13.3223 12.0193 13.4237 12.057 13.5183C12.0947 13.613 12.15 13.6989 12.2196 13.7714C12.2893 13.8438 12.3719 13.9012 12.4629 13.9404C12.5539 13.9796 12.6515 13.9998 12.75 13.9998C12.8484 13.9998 12.946 13.9796 13.037 13.9404C13.128 13.9012 13.2107 13.8438 13.2803 13.7714C13.3499 13.6989 13.4052 13.613 13.4429 13.5183C13.4806 13.4237 13.5 13.3223 13.5 13.2199V12.301C13.9377 12.1401 14.3168 11.8424 14.5854 11.4486C14.8539 11.0549 14.9988 10.5843 15 10.1016V6.98051C14.9981 6.46495 14.8324 5.9645 14.5288 5.55691C14.2253 5.14932 13.8007 4.85741 13.3212 4.72655L13.32 4.70297ZM4.1175 2.05115C4.16788 1.89624 4.26379 1.76171 4.39169 1.66658C4.51959 1.57144 4.673 1.52051 4.83025 1.52097H10.17C10.3336 1.51216 10.4954 1.55924 10.6308 1.65503C10.7662 1.75081 10.8677 1.89004 10.9199 2.05146L11.7075 4.64171H3.29252L4.1175 2.05115ZM13.5 10.1C13.5 10.3068 13.421 10.5052 13.2803 10.6514C13.1397 10.7977 12.949 10.8798 12.7501 10.8798H2.2499C2.05102 10.8798 1.86029 10.7977 1.71966 10.6514C1.57903 10.5052 1.50003 10.3068 1.50003 10.1V6.98051C1.50003 6.77369 1.57903 6.57535 1.71966 6.42911C1.86029 6.28286 2.05102 6.20071 2.2499 6.20071H12.7498C12.9487 6.20071 13.1394 6.28286 13.28 6.42911C13.4207 6.57535 13.4997 6.77369 13.4997 6.98051L13.5 10.1ZM10.965 7.82249C10.8719 7.85754 10.7874 7.91343 10.7174 7.98621C10.6474 8.05898 10.5937 8.14686 10.56 8.24363C10.5054 8.38535 10.4921 8.54061 10.5215 8.69016C10.551 8.83971 10.6221 8.97697 10.7259 9.08492C10.8297 9.19287 10.9617 9.26676 11.1055 9.29742C11.2493 9.32809 11.3986 9.31419 11.5349 9.25743C11.6279 9.22238 11.7124 9.16649 11.7824 9.09372C11.8524 9.02094 11.9062 8.93306 11.9399 8.83629C11.9815 8.74359 12.0016 8.64206 11.9988 8.53981C11.9959 8.33348 11.9181 8.13591 11.7811 7.98666C11.6756 7.87838 11.5417 7.80503 11.3962 7.77587C11.2507 7.7467 11.1001 7.76303 10.9635 7.82279L10.965 7.82249Z" fill="#2E2E3B"/>
</svg>
