<svg width="17" height="14" viewBox="0 0 17 14" fill="none" xmlns="http://www.w3.org/2000/svg">
<path d="M16.4164 8.19679H11.87V4.88196C11.87 2.37392 9.27123 0.333336 6.07774 0.333336C2.88424 0.333336 0.285767 2.37392 0.285767 4.88196V9.12077C0.285767 11.3999 2.45159 13.3375 5.34874 13.6287H5.38152C5.58803 13.6481 5.8356 13.6678 6.08729 13.6678H16.4164C16.5711 13.6675 16.7195 13.6024 16.8289 13.4866C16.9383 13.3708 16.9998 13.2138 17 13.05V8.81533C16.9998 8.65161 16.9382 8.49469 16.8288 8.37895C16.7194 8.26321 16.5711 8.1981 16.4164 8.19788V8.19679ZM6.094 8.20089C3.54406 8.20089 1.46935 6.71464 1.46935 4.8877C1.46935 3.06076 3.54406 1.57452 6.094 1.57452C8.64394 1.57452 10.7186 3.05994 10.7186 4.88688C10.7186 6.71382 8.64317 8.19979 6.094 8.19979V8.20089ZM10.0526 8.19679C10.29 8.01807 10.5128 7.81876 10.7189 7.60092V8.19679H10.0526ZM15.1135 10.3426C14.9586 10.3427 14.81 10.4079 14.7003 10.5239C14.5907 10.6398 14.529 10.7971 14.5288 10.9611V12.4348H13.7441V11.7597C13.7441 11.5959 13.6826 11.4388 13.5732 11.323C13.4637 11.2072 13.3153 11.1421 13.1606 11.1421C13.0058 11.1421 12.8574 11.2072 12.7479 11.323C12.6385 11.4388 12.577 11.5959 12.577 11.7597V12.434H11.7925V11.7597C11.7925 11.5958 11.731 11.4387 11.6215 11.3228C11.512 11.2069 11.3636 11.1418 11.2087 11.1418C11.0539 11.1418 10.9054 11.2069 10.7959 11.3228C10.6864 11.4387 10.6249 11.5958 10.6249 11.7597V12.434H9.83889V10.9611C9.83889 10.7973 9.77741 10.6402 9.66797 10.5244C9.55854 10.4086 9.41011 10.3435 9.25535 10.3435C9.10059 10.3435 8.95216 10.4086 8.84273 10.5244C8.7333 10.6402 8.67182 10.7973 8.67182 10.9611V12.4348H7.94154V11.7597C7.94154 11.5958 7.88003 11.4387 7.77055 11.3228C7.66106 11.2069 7.51257 11.1418 7.35774 11.1418C7.20291 11.1418 7.05442 11.2069 6.94494 11.3228C6.83546 11.4387 6.77395 11.5958 6.77395 11.7597V12.434H5.9879V11.7597C5.9879 11.5959 5.92642 11.4388 5.81699 11.323C5.70755 11.2072 5.55913 11.1421 5.40437 11.1421C5.2496 11.1421 5.10118 11.2072 4.99174 11.323C4.88231 11.4388 4.82083 11.5959 4.82083 11.7597V12.2998C2.87159 11.8938 1.48639 10.5884 1.48639 9.11613V7.62633C2.5706 8.75413 4.27435 9.43196 6.11104 9.43196H15.8335V12.431H15.6977V10.9611C15.6974 10.7974 15.6359 10.6404 15.5266 10.5246C15.4172 10.4088 15.269 10.3435 15.1143 10.3431" fill="#2E2E3B"/>
</svg>
