<svg width="20" height="13" viewBox="0 0 20 13" fill="none" xmlns="http://www.w3.org/2000/svg">
<path d="M5.45422 6.93338C5.99356 6.93338 6.52078 6.78089 6.96923 6.49521C7.41767 6.20952 7.76719 5.80347 7.97359 5.32839C8.17998 4.85331 8.23399 4.33055 8.12877 3.82621C8.02355 3.32188 7.76383 2.85861 7.38246 2.495C7.00109 2.1314 6.51519 1.88378 5.98622 1.78346C5.45724 1.68314 4.90895 1.73462 4.41066 1.93141C3.91238 2.12819 3.48649 2.46143 3.18685 2.88899C2.8872 3.31655 2.72727 3.81922 2.72727 4.33344C2.72727 5.02298 3.01457 5.68429 3.52598 6.17187C4.03738 6.65945 4.73099 6.93338 5.45422 6.93338ZM5.45422 3.46669C5.63402 3.46669 5.80978 3.51752 5.95928 3.61276C6.10878 3.708 6.2253 3.84337 6.29411 4.00175C6.36292 4.16012 6.38092 4.3344 6.34584 4.50253C6.31076 4.67066 6.22418 4.82511 6.09704 4.94632C5.9699 5.06754 5.80792 5.15009 5.63157 5.18353C5.45523 5.21698 5.27244 5.19981 5.10632 5.13421C4.94021 5.06861 4.79823 4.95751 4.69834 4.81498C4.59844 4.67244 4.54513 4.50486 4.54513 4.33344C4.54513 4.10356 4.64091 3.8831 4.81139 3.72055C4.98188 3.55801 5.21311 3.46669 5.45422 3.46669ZM17.2708 1.73319H9.99935C9.75824 1.73319 9.52701 1.82451 9.35652 1.98705C9.18603 2.1496 9.09025 2.37006 9.09025 2.59994V7.80013H1.81818V0.86675C1.81818 0.636873 1.7224 0.416412 1.55192 0.253865C1.38143 0.0913179 1.1502 0 0.909092 0C0.667986 0 0.436753 0.0913179 0.266265 0.253865C0.0957779 0.416412 1.4371e-08 0.636873 0 0.86675V12.1329C-7.1158e-09 12.2468 0.0235151 12.3595 0.0692012 12.4646C0.114887 12.5698 0.181849 12.6653 0.266265 12.7458C0.350682 12.8263 0.4509 12.8902 0.561196 12.9337C0.671492 12.9773 0.789708 12.9997 0.909092 12.9997C1.02848 12.9997 1.14669 12.9773 1.25699 12.9337C1.36728 12.8902 1.4675 12.8263 1.55192 12.7458C1.63633 12.6653 1.70329 12.5698 1.74898 12.4646C1.79467 12.3595 1.81818 12.2468 1.81818 12.1329V9.53362H18.1818V12.1336C18.1818 12.3634 18.2776 12.5839 18.4481 12.7464C18.6186 12.909 18.8498 13.0003 19.0909 13.0003C19.332 13.0003 19.5632 12.909 19.7337 12.7464C19.9042 12.5839 20 12.3634 20 12.1336V4.33344C20 3.64389 19.7127 2.98259 19.2013 2.495C18.6899 2.00742 17.9963 1.7335 17.2731 1.7335H17.2708V1.73319ZM18.1818 7.80013H10.9084V3.46669H17.2714C17.3908 3.46652 17.5091 3.48878 17.6194 3.53219C17.7298 3.5756 17.8301 3.6393 17.9146 3.71967C17.9992 3.80004 18.0663 3.8955 18.1121 4.0006C18.158 4.10569 18.1816 4.21837 18.1818 4.33219V7.80013Z" fill="#2E2E3B"/>
</svg>
